<svg width="64" height="64" viewBox="0 0 64 64" fill="none" xmlns="http://www.w3.org/2000/svg">
<rect width="64" height="64" rx="10" fill="#F0827D"/>
<path fill-rule="evenodd" clip-rule="evenodd" d="M33.6879 14.7585C33.6879 13.886 32.9806 13.1787 32.1081 13.1787C32.1081 13.1787 32.1072 13.1787 32.1062 13.1787C31.2346 13.1787 30.5273 13.886 30.5273 14.7585C30.5273 21.1244 30.5273 44.8658 30.5273 51.2327C30.5273 52.1052 31.2346 52.8125 32.1062 52.8125C32.1072 52.8125 32.1081 52.8125 32.1081 52.8125C32.9806 52.8125 33.6879 52.1052 33.6879 51.2327C33.6879 44.8658 33.6879 21.1244 33.6879 14.7585Z" fill="white"/>
<path fill-rule="evenodd" clip-rule="evenodd" d="M27.3065 44.8173C26.4344 44.8166 25.7266 45.5233 25.7259 46.3958C25.7259 46.3958 25.7259 46.3967 25.7259 46.3977C25.7251 47.2693 26.4318 47.9772 27.3039 47.9779C29.7302 47.9799 34.3478 47.9837 36.7741 47.9857C37.6466 47.9865 38.3544 47.2798 38.3551 46.4082C38.3551 46.4072 38.3551 46.4063 38.3551 46.4063C38.3559 45.5338 37.6492 44.8259 36.7768 44.8252C34.3505 44.8232 29.7328 44.8193 27.3065 44.8173Z" fill="white"/>
<path fill-rule="evenodd" clip-rule="evenodd" d="M19.4981 24.1542C18.6253 24.1535 17.9181 24.8602 17.9173 25.7327C17.9173 25.7327 17.9173 25.7337 17.9173 25.7346C17.9166 26.6062 18.6227 27.3141 19.4955 27.3148C24.4542 27.3189 39.6744 27.3316 44.6331 27.3357C45.5052 27.3364 46.2132 26.6297 46.2139 25.7581C46.2139 25.7572 46.2139 25.7562 46.2139 25.7562C46.2147 24.8837 45.5078 24.1758 44.6358 24.1751C39.6771 24.171 24.4568 24.1584 19.4981 24.1542Z" fill="white"/>
<path fill-rule="evenodd" clip-rule="evenodd" d="M24.7061 16.1695C24.0885 15.5533 23.0883 15.5544 22.472 16.1721C22.472 16.1721 22.4714 16.1727 22.4707 16.1734C21.855 16.7904 21.8561 17.7905 22.4736 18.4068C25.875 21.8008 36.0732 31.977 39.4746 35.371C40.0921 35.9872 41.0923 35.9861 41.708 35.3691C41.7086 35.3685 41.7093 35.3678 41.7093 35.3678C42.3256 34.7502 42.3246 33.75 41.707 33.1337C38.3056 29.7397 28.1075 19.5636 24.7061 16.1695Z" fill="white"/>
<path fill-rule="evenodd" clip-rule="evenodd" d="M22.4954 33.1609C21.8795 33.7789 21.8813 34.779 22.4994 35.3949C22.4994 35.3949 22.5 35.3956 22.5007 35.3962C23.1181 36.0115 24.1183 36.0098 24.7341 35.3918C28.1259 31.9882 38.2953 21.7833 41.6871 18.3797C42.3029 17.7617 42.3011 16.7615 41.6837 16.1463C41.683 16.1456 41.6824 16.145 41.6824 16.145C41.0643 15.5291 40.0641 15.5308 39.4483 16.1487C36.0565 19.5524 25.8872 29.7572 22.4954 33.1609Z" fill="white"/>
</svg>
